<svg xmlns="http://www.w3.org/2000/svg" viewBox="0 0 128 128" fill="currentcolor"><path d="M49 14.2c-5.1 0-9.4 3.1-11.2 7.6-1.2-.4-2.5-.6-3.8-.6-7.2 0-13 5.8-13 13v.1c-6.3 1.4-11.1 7-11.1 13.7 0 2 .4 3.9 1.2 5.7C7.3 57.1 5 62 5 67.2c0 .6 0 1.1.1 1.6v.3c.1.5.1 1.1.2 1.6v.2c.1.5.2 1 .4 1.5v.1c.2.5.4 1 .6 1.6 0 0 0 .1.1.1.4 1 1 2 1.6 2.9 0 0 0 .1.1.1.6.9 1.3 1.7 2.1 2.5l.2.2c.4.3.7.7 1.1 1 .1.1.2.2.3.2l.9.6c.2.1.3.2.5.4l.1.1c.1 0 .1.1.2.1 2.8 1.7 6 2.7 9.5 2.7 9.9 0 18-8.1 18-18v-5c0-1.7-1.3-3-3-3s-3 1.3-3 3v5c0 6.6-5.4 12-12 12-2.4 0-4.6-.7-6.5-1.9-.8-.5-1.6-1.1-2.2-1.8-.1-.1-.2-.2-.2-.3-.2-.2-.4-.5-.6-.8-.1-.1-.2-.2-.3-.4l-.6-.9c0-.1-.1-.1-.1-.2l-.6-1.2c-.1-.1-.1-.3-.2-.4l-.3-.9c0-.2-.1-.3-.1-.5-.1-.3-.1-.6-.2-.9 0-.1 0-.3-.1-.4v-1.2c0-3.9 1.9-7.4 5-9.7h4c1.7 0 3-1.3 3-3s-1.3-3-3-3h-3.2c-.6-1.1-.9-2.3-.9-3.6 0-3.9 2.8-7.1 6.5-7.9 2.2 4.2 6.5 7.1 11.6 7.1 1.7 0 3-1.3 3-3s-1.3-3-3-3c-3.1 0-5.8-2.1-6.7-4.9-.1-.3-.2-.6-.2-.9v-.2c0-.3-.1-.6-.1-1 0-3.9 3.1-7 7-7 1.5 0 3 .5 4.2 1.4.9.7 2.1.8 3.1.3s1.7-1.5 1.7-2.7V26c0-3.3 2.7-5.9 6-5.9s6 2.7 6 6v71c0 6.8-5.4 12.1-12 12.1-5.1 0-9.6-3.2-11.3-8-.4-1.3-1.7-2.1-3-2H28c-6.6 0-12-5.4-12-12 0-1.7-1.3-3-3-3s-3 1.3-3 3c0 9.5 7.5 17.4 16.9 18 3 6.1 9.2 10 16.1 10 9.9 0 18-8.1 18-18v-71c0-6.6-5.4-12-12-12zm30 0c-6.6 0-12 5.4-12 12v71c0 9.9 8.1 18 18 18 6.9 0 13.1-4 16.1-10 9.4-.6 16.9-8.4 16.9-18 0-2.2-.4-4.4-1.2-6.4 3.9-3.4 6.2-8.3 6.2-13.6 0-5.2-2.2-10.1-6.1-13.5.7-1.7 1.1-3.6 1.1-5.5 0-6.7-4.7-12.3-11-13.7v-.3c0-6.9-5.4-12.5-12.2-13H94c-1.3 0-2.6.2-3.8.6-1.8-4.4-6.1-7.6-11.2-7.6zm0 6c3 0 5.5 2.2 5.9 5.1-2.2 2.3-3.5 5.4-3.5 8.9 0 1.7 1.3 3 3 3s3-1.3 3-3c0-3.8 3-6.9 6.8-7 3.8.1 6.8 3.2 6.8 7 0 .7-.1 1.4-.3 2.1-.3.9-.1 2 .5 2.7.6.8 1.5 1.2 2.5 1.2h.3c4.4 0 8 3.6 8 8 0 1.2-.3 2.3-.7 3.3H108c-1.7 0-3 1.3-3 3s1.3 3 3 3h4c3.1 2.3 5 5.8 5 9.7 0 4.1-2.1 7.9-5.6 10.1-1.3.9-1.8 2.6-1 4 1 1.8 1.6 3.8 1.6 5.9 0 6.6-5.4 12-12 12h-.7c-1.3-.1-2.6.7-3 2-1.7 4.8-6.2 8-11.3 8-6.6 0-12-5.4-12-12v-71c0-3.3 2.7-6 6-6zM84 45a3 3 0 0 0-3 3 3 3 0 0 0 3 3 3 3 0 0 0 3-3 3 3 0 0 0-3-3zm4.4 19.2c-1.7 0-3 1.3-3 3 0 9.9 8.1 18 18 18 1.7 0 3-1.3 3-3s-1.3-3-3-3c-6.6 0-12-5.4-12-12 0-1.7-1.3-3-3-3z"/></svg>