<svg xmlns="http://www.w3.org/2000/svg" viewBox="0 0 403.994 403.994" fill="currentcolor"><path d="M 139.02734 0 L 113.13477 18.802734 C 113.33977 19.084734 133.20188 47.423328 118.42188 62.236328 C 104.05188 76.635328 99.329094 95.101469 105.12109 114.23047 C 109.10309 127.37847 116.80883 136.48742 117.67383 137.48242 L 141.82031 116.48633 L 141.90625 116.58789 C 141.86225 116.53489 137.45302 111.22523 135.54102 104.24023 C 133.48202 96.719234 135.18827 90.736844 141.07227 84.839844 C 155.47927 70.401844 159.53991 49.995813 152.50391 27.382812 C 147.83691 12.377812 139.91434 1.223 139.02734 0 z M 219.02734 0 L 193.13477 18.802734 C 193.33977 19.084734 213.20187 47.423328 198.42188 62.236328 C 184.05187 76.635328 179.32909 95.101469 185.12109 114.23047 C 189.10309 127.37847 196.80883 136.48742 197.67383 137.48242 L 221.82031 116.48633 L 221.90625 116.58789 C 221.86225 116.53489 217.45302 111.22523 215.54102 104.24023 C 213.48202 96.719234 215.18827 90.736844 221.07227 84.839844 C 235.47927 70.401844 239.53991 49.995813 232.50391 27.382812 C 227.83691 12.377812 219.91434 1.223 219.02734 0 z M 51.982422 160.99414 C 44.113422 160.99414 37.412688 166.95947 36.179688 174.73047 C 30.354688 211.43147 30.338 249.36103 37.75 285.83203 L 69.109375 279.49023 C 63.321375 251.01023 62.911516 221.82214 65.978516 192.99414 L 272.63867 192.99414 C 279.11467 253.85714 269.74803 326.77414 224.20703 371.99414 L 114.41406 371.99414 C 107.58006 364.99414 101.23491 357.08842 95.503906 347.98242 L 68.421875 365.01562 C 69.928875 367.40963 71.487313 369.99414 73.070312 371.99414 L 55 371.99414 L 55 403.99414 L 290 403.99414 L 290 371.99414 L 265.55859 371.99414 C 277.58659 354.10914 286.95153 334.64505 293.51953 314.12305 C 321.30153 315.97305 346.67311 297.21409 360.16211 274.12109 C 371.32211 255.01509 374.80856 233.17984 369.72656 214.21484 C 361.76856 184.51384 332.26344 168.15972 302.64844 176.38672 C 302.57544 175.91872 302.5115 175.19547 302.4375 174.73047 C 301.2045 166.95947 294.50472 160.99414 286.63672 160.99414 L 51.982422 160.99414 z M 317.58203 206.41406 C 327.2431 206.25616 335.88606 211.55836 338.81641 222.49414 C 341.65941 233.10714 339.3093 246.37447 332.5293 257.98047 C 324.9173 271.01247 312.81381 279.88617 301.63281 281.82617 C 306.13381 257.85717 307.44569 233.42966 306.05469 209.09766 C 309.86563 207.37416 313.80161 206.47585 317.58203 206.41406 z M 74.796875 301.9043 L 44.212891 311.31836 C 47.205891 321.04236 50.749141 330.48019 54.744141 339.36719 L 83.931641 326.24609 C 80.474641 318.56009 77.401875 310.3693 74.796875 301.9043 z"/></svg>