<svg xmlns="http://www.w3.org/2000/svg" viewBox="0 0 50 50" fill="currentcolor"><path d="M 21 2 C 19.355469 2 18 3.355469 18 5 L 18 7 L 8 7 C 7.640625 6.996094 7.304688 7.183594 7.121094 7.496094 C 6.941406 7.808594 6.941406 8.191406 7.121094 8.503906 C 7.304688 8.816406 7.640625 9.003906 8 9 L 9 9 L 9 45 C 9 46.652344 10.347656 48 12 48 L 38 48 C 39.652344 48 41 46.652344 41 45 L 41 9 L 42 9 C 42.359375 9.003906 42.695313 8.816406 42.878906 8.503906 C 43.058594 8.191406 43.058594 7.808594 42.878906 7.496094 C 42.695313 7.183594 42.359375 6.996094 42 7 L 32 7 L 32 5 C 32 3.355469 30.644531 2 29 2 Z M 21 4 L 29 4 C 29.554688 4 30 4.445313 30 5 L 30 7 L 20 7 L 20 5 C 20 4.445313 20.445313 4 21 4 Z M 18 20 C 18.253906 20 18.511719 20.097656 18.707031 20.292969 L 25 26.585938 L 31.292969 20.292969 C 31.683594 19.902344 32.316406 19.902344 32.707031 20.292969 C 33.097656 20.683594 33.097656 21.316406 32.707031 21.707031 L 26.414063 28 L 32.707031 34.292969 C 33.097656 34.683594 33.097656 35.316406 32.707031 35.707031 C 32.511719 35.902344 32.257813 36 32 36 C 31.742188 36 31.488281 35.902344 31.292969 35.707031 L 25 29.414063 L 18.707031 35.707031 C 18.511719 35.902344 18.257813 36 18 36 C 17.742188 36 17.488281 35.902344 17.292969 35.707031 C 16.902344 35.316406 16.902344 34.683594 17.292969 34.292969 L 23.585938 28 L 17.292969 21.707031 C 16.902344 21.316406 16.902344 20.683594 17.292969 20.292969 C 17.488281 20.097656 17.746094 20 18 20 Z"/></svg>